<?xml version="1.0" standalone="no"?>
<!DOCTYPE svg PUBLIC "-//W3C//DTD SVG 20010904//EN"
 "http://www.w3.org/TR/2001/REC-SVG-20010904/DTD/svg10.dtd">
<svg version="1.0" xmlns="http://www.w3.org/2000/svg"
 width="1102.000000pt" height="1280.000000pt" viewBox="0 0 1102.000000 1280.000000"
 preserveAspectRatio="xMidYMid meet">
<metadata>
Created by potrace 1.15, written by Peter Selinger 2001-2017
</metadata>
<g transform="translate(0.000000,1280.000000) scale(0.100000,-0.100000)"
fill="#000000" stroke="none">
<path d="M3145 12794 c-204 -20 -279 -29 -400 -50 -699 -122 -1384 -456 -1829
-892 -177 -172 -283 -312 -414 -540 -493 -860 -634 -2156 -367 -3359 40 -175
94 -334 230 -673 67 -168 139 -357 160 -420 89 -276 178 -763 230 -1260 46
-433 66 -1052 46 -1400 -16 -288 -55 -439 -233 -895 -216 -553 -271 -710 -323
-915 -71 -280 -75 -547 -12 -726 91 -256 342 -488 757 -703 188 -97 679 -321
885 -403 644 -258 1336 -423 2110 -503 427 -44 1054 -66 1320 -46 449 35 901
138 1205 275 132 59 277 153 321 205 73 89 104 205 120 454 11 192 82 898 110
1112 47 359 129 656 240 877 17 35 68 124 112 198 359 605 711 1130 1487 2215
427 597 622 874 845 1200 109 160 269 391 355 515 475 683 655 996 778 1355
168 490 187 1192 47 1746 -89 355 -230 625 -430 824 -127 127 -255 218 -420
300 -292 146 -594 210 -975 209 -308 -1 -507 -28 -855 -114 -216 -54 -235 -57
-235 -37 0 26 -96 203 -142 264 -120 155 -299 265 -526 323 -188 47 -256 52
-882 60 -605 8 -648 10 -825 52 -203 47 -366 115 -855 356 -533 262 -725 331
-1060 378 -101 14 -492 26 -575 18z m560 -219 c266 -36 472 -91 711 -191 88
-37 222 -93 300 -124 279 -115 419 -198 504 -300 l42 -50 -24 -9 c-266 -109
-386 -183 -581 -362 -436 -402 -811 -1123 -942 -1814 -29 -159 -39 -259 -61
-619 -24 -405 -10 -587 56 -717 23 -44 121 -149 139 -149 6 0 8 12 6 28 -27
160 -39 546 -26 811 72 1385 607 2358 1465 2660 304 107 605 159 971 168 638
15 1167 -150 1455 -453 145 -153 238 -330 300 -574 46 -181 63 -335 63 -580
-1 -474 -63 -771 -229 -1103 -105 -210 -174 -317 -453 -707 -233 -326 -353
-510 -429 -658 -35 -68 -62 -125 -60 -128 9 -8 196 93 258 140 428 326 936
1220 1044 1836 26 148 28 241 10 521 -34 560 -4 728 157 891 117 117 327 200
614 243 145 21 374 21 501 0 467 -80 826 -392 1044 -909 140 -330 212 -716
214 -1141 1 -243 -3 -269 -74 -540 -62 -240 -152 -494 -261 -742 -114 -259
-127 -281 -602 -1043 -606 -972 -928 -1439 -1281 -1859 -67 -79 -158 -191
-204 -250 -46 -58 -142 -181 -214 -274 -428 -549 -728 -712 -944 -514 -69 62
-93 112 -94 188 0 137 63 247 709 1233 217 331 416 654 408 662 -10 10 -160
-100 -229 -169 -131 -129 -212 -249 -460 -677 -196 -338 -285 -465 -427 -608
-180 -183 -326 -250 -521 -239 -355 21 -701 270 -751 542 -7 36 -9 113 -6 195
10 252 90 507 272 867 l93 183 -39 -30 c-74 -59 -166 -187 -220 -306 -16 -35
-65 -170 -110 -301 -109 -322 -162 -424 -276 -535 -134 -131 -302 -144 -683
-53 -102 25 -252 58 -333 75 -262 54 -406 111 -497 196 -91 85 -116 190 -107
452 12 355 -30 778 -113 1124 -21 89 -34 114 -26 53 19 -150 23 -732 6 -915
-23 -249 -71 -440 -133 -533 -91 -135 -310 -204 -612 -194 -323 12 -570 109
-644 255 -16 31 -27 131 -68 589 -26 303 -51 549 -55 547 -3 -2 -16 -44 -27
-92 -23 -98 -41 -295 -41 -446 0 -222 -34 -428 -87 -534 -39 -77 -161 -189
-260 -238 -74 -37 -83 -39 -170 -39 -86 0 -93 2 -130 30 -65 53 -110 166 -134
339 -6 45 -12 241 -14 436 -5 430 -18 553 -100 920 -46 205 -183 730 -184 705
-1 -11 6 -83 14 -160 75 -728 135 -1607 120 -1790 -22 -276 -71 -466 -133
-515 -34 -27 -49 -25 -86 12 -79 79 -150 364 -211 838 -59 464 -91 605 -231
1015 -47 138 -123 358 -168 490 -130 381 -194 671 -231 1055 -57 593 3 1213
170 1765 106 349 281 724 448 960 111 156 301 357 463 488 198 159 531 351
784 450 357 140 643 204 1080 241 96 8 461 -4 575 -19z m-920 -7395 c1160 -47
2145 -248 3021 -615 160 -67 163 -69 745 -363 479 -241 569 -298 688 -428 84
-92 104 -134 109 -230 7 -127 -18 -192 -171 -458 -90 -157 -132 -263 -187
-481 -105 -412 -180 -1049 -180 -1531 0 -74 -2 -134 -3 -134 -2 0 -96 44 -208
99 -1242 600 -2633 953 -4024 1021 -712 34 -1472 -30 -2062 -175 l-133 -32 0
28 c0 62 33 271 61 389 42 179 85 312 221 685 260 714 305 925 291 1347 -9
270 15 453 74 575 82 168 328 281 678 313 106 10 724 4 1080 -10z m75 -3380
c1317 -81 2351 -336 3312 -815 337 -169 488 -285 488 -376 0 -85 -103 -148
-414 -255 -271 -93 -541 -148 -865 -175 -179 -15 -632 -6 -821 15 -583 68
-1007 170 -1775 427 -492 165 -595 204 -760 284 -342 166 -492 345 -455 544
36 193 196 303 505 346 112 16 561 19 785 5z"/>
<path d="M3170 11785 c-78 -22 -193 -78 -267 -131 -448 -320 -807 -1104 -718
-1569 14 -75 51 -165 67 -165 4 0 8 17 8 39 0 21 9 90 20 154 38 217 96 407
187 617 223 509 562 866 952 1001 l94 33 -39 14 c-58 21 -237 25 -304 7z"/>
<path d="M9280 10496 c0 -3 26 -72 59 -153 168 -423 215 -677 177 -968 -31
-230 -59 -332 -193 -695 -92 -251 -149 -427 -140 -436 8 -8 122 121 169 192
217 326 345 854 308 1264 -27 299 -112 532 -251 684 -50 54 -129 123 -129 112z"/>
</g>
</svg>
