<svg xmlns="http://www.w3.org/2000/svg" viewBox="0 0 512 512"><path fill="none" stroke="#000" stroke-linecap="round" stroke-linejoin="round" stroke-width="16" d="M139 240h90a75 75 0 0 1 75 75v5a0 0 0 0 1 0 0H64a0 0 0 0 1 0 0v-5A75 75 0 0 1 139 240zM304 325.836V320H64v5.836a21.1146 21.1146 0 0 0 30.5573 18.8854h0a21.1143 21.1143 0 0 1 18.8854 0l21.1146 10.5572a21.1143 21.1143 0 0 0 18.8854 0l21.1146-10.5572a21.1143 21.1143 0 0 1 18.8854 0l21.1146 10.5572a21.1143 21.1143 0 0 0 18.8854 0l21.1146-10.5572a21.1143 21.1143 0 0 1 18.8854 0h0A21.1146 21.1146 0 0 0 304 325.836z"/><path fill="none" stroke="#000" stroke-linecap="round" stroke-linejoin="round" stroke-width="16" d="M69.4443,340H64v40H164l8.2149,8.2149a16.6667,16.6667,0,0,0,23.57,0L204,380l26.1325,39.1987a16.6666,16.6666,0,0,0,27.735,0L284,380h20V340h-5.4494"/><path fill="none" stroke="#000" stroke-linecap="round" stroke-linejoin="round" stroke-width="16" d="M84 380a20 20 0 0 0-20 20h0a20 20 0 0 0 20 20H230.6667M284 380a20 20 0 0 1 20 20h0a20 20 0 0 1-20 20H257.3333M64 420h0a60 60 0 0 0 60 60H244a60 60 0 0 0 60-60h0"/><line x1="64" x2="81.142" y1="420" y2="420" fill="none" stroke="#000" stroke-linecap="round" stroke-linejoin="round" stroke-width="16"/><line x1="304" x2="284" y1="420" y2="420" fill="none" stroke="#000" stroke-linecap="round" stroke-linejoin="round" stroke-width="16"/><rect width="225.434" height="31.408" x="254.566" y="160.296" fill="none" stroke="#000" stroke-linecap="round" stroke-linejoin="round" stroke-width="16"/><line x1="286.038" x2="279.685" y1="266.303" y2="191.704" fill="none" stroke="#000" stroke-linecap="round" stroke-linejoin="round" stroke-width="16"/><polyline fill="none" stroke="#000" stroke-linecap="round" stroke-linejoin="round" stroke-width="16" points="454.175 191.704 429.747 478.531 304.113 478.531 300.783 439.427"/><line x1="366.842" x2="366.842" y1="96.286" y2="160.296" fill="none" stroke="#000" stroke-linecap="round" stroke-linejoin="round" stroke-width="16"/><line x1="429.658" x2="366.842" y1="33.469" y2="96.286" fill="none" stroke="#000" stroke-linecap="round" stroke-linejoin="round" stroke-width="16"/></svg>